<svg width="20" height="20" viewBox="0 0 20 20" fill="none" xmlns="http://www.w3.org/2000/svg">
<path d="M17.725 7.64992C17.4833 7.26659 17.225 6.90825 16.9583 6.57492C16.65 6.18325 16.0666 6.14992 15.7166 6.49992L13.2166 8.99992C13.4 9.54992 13.4333 10.1833 13.2666 10.8416C12.975 12.0166 12.025 12.9666 10.85 13.2583C10.1916 13.4249 9.55831 13.3916 9.00831 13.2083C9.00831 13.2083 7.81664 14.3999 6.95831 15.2583C6.54164 15.6749 6.67498 16.4083 7.23331 16.6249C8.12498 16.9666 9.04998 17.1416 9.99998 17.1416C11.4833 17.1416 12.925 16.7083 14.2416 15.8999C15.5833 15.0666 16.7916 13.8416 17.7666 12.2833C18.5583 11.0249 18.5166 8.90825 17.725 7.64992Z" fill="#C8C8C8"/>
<path d="M11.6833 8.3167L8.31664 11.6834C7.89164 11.25 7.61664 10.65 7.61664 10C7.61664 8.6917 8.6833 7.6167 9.99997 7.6167C10.65 7.6167 11.25 7.8917 11.6833 8.3167Z" fill="#C8C8C8"/>
<path d="M15.2084 4.79173L12.3834 7.61673C11.775 7.00007 10.9334 6.6334 10 6.6334C8.13335 6.6334 6.63335 8.14173 6.63335 10.0001C6.63335 10.9334 7.00835 11.7751 7.61669 12.3834L4.80002 15.2084H4.79169C3.86669 14.4584 3.01669 13.5001 2.29169 12.3667C1.45835 11.0584 1.45835 8.9334 2.29169 7.62506C3.25835 6.1084 4.44169 4.91673 5.75835 4.10007C7.07502 3.30007 8.51669 2.8584 10 2.8584C11.8584 2.8584 13.6584 3.54173 15.2084 4.79173Z" fill="#C8C8C8"/>
<path d="M12.3833 10.0001C12.3833 11.3084 11.3167 12.3834 10 12.3834C9.95 12.3834 9.90834 12.3834 9.85834 12.3667L12.3667 9.8584C12.3833 9.9084 12.3833 9.95007 12.3833 10.0001Z" fill="#C8C8C8"/>
<path d="M18.1417 1.8584C17.8917 1.6084 17.4833 1.6084 17.2333 1.8584L1.85834 17.2417C1.60834 17.4917 1.60834 17.9001 1.85834 18.1501C1.98334 18.2667 2.14167 18.3334 2.30834 18.3334C2.475 18.3334 2.63334 18.2667 2.75834 18.1417L18.1417 2.7584C18.4 2.5084 18.4 2.1084 18.1417 1.8584Z" fill="#C8C8C8"/>
</svg>
