<svg width="20" height="20" viewBox="0 0 20 20" fill="none" xmlns="http://www.w3.org/2000/svg">
<path d="M18.3334 6.50834V13.4917C18.3334 16.1667 16.1667 18.3333 13.4917 18.3333H6.50841C3.83341 18.3333 1.66675 16.1667 1.66675 13.4917V6.50834C1.66675 4.43334 2.51675 2.92501 4.02508 2.19168C4.57508 1.92501 5.20841 2.34168 5.20841 2.95001V10.35C5.20841 11.3417 5.59175 12.1333 6.28341 12.5333C6.98342 12.925 7.86675 12.8417 8.76675 12.3L9.85008 11.65C9.91675 11.6167 10.0834 11.6167 10.1334 11.6417L11.2334 12.3C11.8334 12.6583 12.3501 12.775 12.7667 12.775C13.2001 12.775 13.5334 12.6417 13.7334 12.525C14.4084 12.1333 14.7917 11.3417 14.7917 10.35V2.95001C14.7917 2.34168 15.4334 1.92501 15.9751 2.19168C17.4834 2.92501 18.3334 4.43334 18.3334 6.50834Z" fill="#BABABA"/>
<path d="M12.7083 1.66666C13.1666 1.66666 13.5416 2.04166 13.5416 2.49999V10.35C13.5416 10.8833 13.3833 11.2833 13.1083 11.4417C12.8249 11.6083 12.3749 11.525 11.8749 11.225L10.7749 10.5667C10.3499 10.3083 9.64992 10.3083 9.22492 10.5667L8.12492 11.225C7.62492 11.525 7.17492 11.6 6.89159 11.4417C6.61659 11.2833 6.45825 10.8833 6.45825 10.35V2.49999C6.45825 2.04166 6.83325 1.66666 7.29159 1.66666H12.7083Z" fill="#BABABA"/>
</svg>
