<svg width="20" height="20" viewBox="0 0 20 20" fill="none" xmlns="http://www.w3.org/2000/svg">
<path d="M13.3333 1.66666H6.66663C3.33329 1.66666 1.66663 3.33332 1.66663 6.66666V17.5C1.66663 17.9583 2.04163 18.3333 2.49996 18.3333H13.3333C16.6666 18.3333 18.3333 16.6667 18.3333 13.3333V6.66666C18.3333 3.33332 16.6666 1.66666 13.3333 1.66666ZM11.6666 12.7083H5.83329C5.49163 12.7083 5.20829 12.425 5.20829 12.0833C5.20829 11.7417 5.49163 11.4583 5.83329 11.4583H11.6666C12.0083 11.4583 12.2916 11.7417 12.2916 12.0833C12.2916 12.425 12.0083 12.7083 11.6666 12.7083ZM14.1666 8.54166H5.83329C5.49163 8.54166 5.20829 8.25832 5.20829 7.91666C5.20829 7.57499 5.49163 7.29166 5.83329 7.29166H14.1666C14.5083 7.29166 14.7916 7.57499 14.7916 7.91666C14.7916 8.25832 14.5083 8.54166 14.1666 8.54166Z" fill="#398166"/>
</svg>
