<svg width="20" height="20" viewBox="0 0 20 20" fill="none" xmlns="http://www.w3.org/2000/svg">
<path d="M10 18.9584C5.05835 18.9584 1.04169 14.9417 1.04169 10C1.04169 5.05835 5.05835 1.04169 10 1.04169C14.9417 1.04169 18.9584 5.05835 18.9584 10C18.9584 14.9417 14.9417 18.9584 10 18.9584ZM10 2.29169C5.75002 2.29169 2.29169 5.75002 2.29169 10C2.29169 14.25 5.75002 17.7084 10 17.7084C14.25 17.7084 17.7084 14.25 17.7084 10C17.7084 5.75002 14.25 2.29169 10 2.29169Z" fill="#398166"/>
<path d="M13.3334 10.625H6.66669C6.32502 10.625 6.04169 10.3417 6.04169 10C6.04169 9.65833 6.32502 9.375 6.66669 9.375H13.3334C13.675 9.375 13.9584 9.65833 13.9584 10C13.9584 10.3417 13.675 10.625 13.3334 10.625Z" fill="#398166"/>
<path d="M10 13.9584C9.65833 13.9584 9.375 13.675 9.375 13.3334V6.66669C9.375 6.32502 9.65833 6.04169 10 6.04169C10.3417 6.04169 10.625 6.32502 10.625 6.66669V13.3334C10.625 13.675 10.3417 13.9584 10 13.9584Z" fill="#398166"/>
</svg>
