<svg width="16" height="16" viewBox="0 0 16 16" fill="none" xmlns="http://www.w3.org/2000/svg">
<path d="M7.99992 15.1667C4.04659 15.1667 0.833252 11.9533 0.833252 8C0.833252 4.04666 4.04659 0.833328 7.99992 0.833328C11.9533 0.833328 15.1666 4.04666 15.1666 8C15.1666 11.9533 11.9533 15.1667 7.99992 15.1667ZM7.99992 1.83333C4.59992 1.83333 1.83325 4.6 1.83325 8C1.83325 11.4 4.59992 14.1667 7.99992 14.1667C11.3999 14.1667 14.1666 11.4 14.1666 8C14.1666 4.6 11.3999 1.83333 7.99992 1.83333Z" fill="#FF8356"/>
<path d="M6.11332 10.3867C5.98666 10.3867 5.85999 10.34 5.75999 10.24C5.56666 10.0467 5.56666 9.72667 5.75999 9.53334L9.53332 5.76001C9.72666 5.56667 10.0467 5.56667 10.24 5.76001C10.4333 5.95334 10.4333 6.27334 10.24 6.46667L6.46666 10.24C6.37332 10.34 6.23999 10.3867 6.11332 10.3867Z" fill="#FF8356"/>
<path d="M9.88666 10.3867C9.75999 10.3867 9.63332 10.34 9.53332 10.24L5.75999 6.46667C5.56666 6.27334 5.56666 5.95334 5.75999 5.76001C5.95332 5.56667 6.27332 5.56667 6.46666 5.76001L10.24 9.53334C10.4333 9.72667 10.4333 10.0467 10.24 10.24C10.14 10.34 10.0133 10.3867 9.88666 10.3867Z" fill="#FF8356"/>
</svg>
