<svg width="20" height="20" viewBox="0 0 20 20" fill="none" xmlns="http://www.w3.org/2000/svg">
<path d="M13.5667 18.4166H10.4C9.93334 18.4166 8.91667 18.275 8.37501 17.7333L5.85001 15.7833L6.61667 14.7916L9.20001 16.7916C9.40834 16.9916 9.93334 17.1583 10.4 17.1583H13.5667C14.3167 17.1583 15.125 16.5583 15.2917 15.8833L17.3083 9.75831C17.4417 9.39164 17.4167 9.05831 17.2417 8.81664C17.0583 8.55831 16.725 8.40831 16.3167 8.40831H12.9833C12.55 8.40831 12.15 8.22497 11.875 7.9083C11.5917 7.5833 11.4667 7.14997 11.5333 6.69997L11.95 4.02497C12.05 3.5583 11.7333 3.0333 11.2833 2.8833C10.875 2.7333 10.35 2.94997 10.1667 3.21664L6.75001 8.29997L5.71667 7.60831L9.13334 2.52497C9.65834 1.74164 10.8083 1.36664 11.7083 1.7083C12.75 2.04997 13.4167 3.19997 13.1833 4.26664L12.775 6.89164C12.7667 6.94997 12.7667 7.03331 12.825 7.09997C12.8667 7.14164 12.925 7.16664 12.9917 7.16664H16.325C17.1417 7.16664 17.85 7.50831 18.2667 8.09997C18.675 8.67497 18.7583 9.43331 18.4917 10.1666L16.5 16.2333C16.1917 17.4416 14.9083 18.4166 13.5667 18.4166Z" fill="#292D32"/>
<path d="M4.48334 17.5H3.65C2.10834 17.5 1.35834 16.775 1.35834 15.2917V7.12502C1.35834 5.64169 2.10834 4.91669 3.65 4.91669H4.48334C6.025 4.91669 6.775 5.64169 6.775 7.12502V15.2917C6.775 16.775 6.025 17.5 4.48334 17.5ZM3.65 6.16669C2.74167 6.16669 2.60834 6.38335 2.60834 7.12502V15.2917C2.60834 16.0334 2.74167 16.25 3.65 16.25H4.48334C5.39167 16.25 5.525 16.0334 5.525 15.2917V7.12502C5.525 6.38335 5.39167 6.16669 4.48334 6.16669H3.65Z" fill="#292D32"/>
</svg>
