<svg width="16" height="16" viewBox="0 0 16 16" fill="none" xmlns="http://www.w3.org/2000/svg">
<path d="M3.33333 9.83329C2.32 9.83329 1.5 9.01329 1.5 7.99996C1.5 6.98663 2.32 6.16663 3.33333 6.16663C4.34667 6.16663 5.16667 6.98663 5.16667 7.99996C5.16667 9.01329 4.34667 9.83329 3.33333 9.83329ZM3.33333 7.16663C2.87333 7.16663 2.5 7.53996 2.5 7.99996C2.5 8.45996 2.87333 8.83329 3.33333 8.83329C3.79333 8.83329 4.16667 8.45996 4.16667 7.99996C4.16667 7.53996 3.79333 7.16663 3.33333 7.16663Z" fill="#666666"/>
<path d="M12.6666 9.83329C11.6533 9.83329 10.8333 9.01329 10.8333 7.99996C10.8333 6.98663 11.6533 6.16663 12.6666 6.16663C13.6799 6.16663 14.4999 6.98663 14.4999 7.99996C14.4999 9.01329 13.6799 9.83329 12.6666 9.83329ZM12.6666 7.16663C12.2066 7.16663 11.8333 7.53996 11.8333 7.99996C11.8333 8.45996 12.2066 8.83329 12.6666 8.83329C13.1266 8.83329 13.4999 8.45996 13.4999 7.99996C13.4999 7.53996 13.1266 7.16663 12.6666 7.16663Z" fill="#666666"/>
<path d="M8.00008 9.83329C6.98675 9.83329 6.16675 9.01329 6.16675 7.99996C6.16675 6.98663 6.98675 6.16663 8.00008 6.16663C9.01341 6.16663 9.83341 6.98663 9.83341 7.99996C9.83341 9.01329 9.01341 9.83329 8.00008 9.83329ZM8.00008 7.16663C7.54008 7.16663 7.16675 7.53996 7.16675 7.99996C7.16675 8.45996 7.54008 8.83329 8.00008 8.83329C8.46008 8.83329 8.83341 8.45996 8.83341 7.99996C8.83341 7.53996 8.46008 7.16663 8.00008 7.16663Z" fill="#666666"/>
</svg>
