<svg width="20" height="20" viewBox="0 0 20 20" fill="none" xmlns="http://www.w3.org/2000/svg">
<path d="M17.0834 13.3333V15.4167C17.0834 17.025 15.7751 18.3333 14.1667 18.3333H5.83341C4.22508 18.3333 2.91675 17.025 2.91675 15.4167V14.875C2.91675 13.5667 3.98341 12.5 5.29175 12.5H16.2501C16.7084 12.5 17.0834 12.875 17.0834 13.3333Z" fill="#398166"/>
<path d="M12.9167 1.66666H7.08342C3.75008 1.66666 2.91675 2.49999 2.91675 5.83332V12.15C3.55008 11.5917 4.38341 11.25 5.29175 11.25H16.2501C16.7084 11.25 17.0834 10.875 17.0834 10.4167V5.83332C17.0834 2.49999 16.2501 1.66666 12.9167 1.66666ZM10.8334 8.95832H6.66675C6.32508 8.95832 6.04175 8.67499 6.04175 8.33332C6.04175 7.99166 6.32508 7.70832 6.66675 7.70832H10.8334C11.1751 7.70832 11.4584 7.99166 11.4584 8.33332C11.4584 8.67499 11.1751 8.95832 10.8334 8.95832ZM13.3334 6.04166H6.66675C6.32508 6.04166 6.04175 5.75832 6.04175 5.41666C6.04175 5.07499 6.32508 4.79166 6.66675 4.79166H13.3334C13.6751 4.79166 13.9584 5.07499 13.9584 5.41666C13.9584 5.75832 13.6751 6.04166 13.3334 6.04166Z" fill="#398166"/>
</svg>
