<svg width="20" height="20" viewBox="0 0 20 20" fill="none" xmlns="http://www.w3.org/2000/svg">
<path d="M18.3333 4.04167V13.95C18.3333 14.7583 17.675 15.5 16.8667 15.6L16.6083 15.6333C15.2417 15.8167 13.3167 16.3833 11.7667 17.0333C11.225 17.2583 10.625 16.85 10.625 16.2583V4.66667C10.625 4.35834 10.8 4.075 11.075 3.925C12.6 3.1 14.9083 2.36667 16.475 2.23334H16.525C17.525 2.23334 18.3333 3.04167 18.3333 4.04167Z" fill="#BABABA"/>
<path d="M8.92511 3.925C7.40011 3.1 5.09178 2.36667 3.52511 2.23334H3.46678C2.46678 2.23334 1.65845 3.04167 1.65845 4.04167V13.95C1.65845 14.7583 2.31678 15.5 3.12511 15.6L3.38345 15.6333C4.75011 15.8167 6.67511 16.3833 8.22511 17.0333C8.76678 17.2583 9.36678 16.85 9.36678 16.2583V4.66667C9.36678 4.35 9.20011 4.075 8.92511 3.925ZM4.16678 6.45H6.04178C6.38345 6.45 6.66678 6.73334 6.66678 7.075C6.66678 7.425 6.38345 7.7 6.04178 7.7H4.16678C3.82511 7.7 3.54178 7.425 3.54178 7.075C3.54178 6.73334 3.82511 6.45 4.16678 6.45ZM6.66678 10.2H4.16678C3.82511 10.2 3.54178 9.925 3.54178 9.575C3.54178 9.23334 3.82511 8.95 4.16678 8.95H6.66678C7.00845 8.95 7.29178 9.23334 7.29178 9.575C7.29178 9.925 7.00845 10.2 6.66678 10.2Z" fill="#BABABA"/>
</svg>
