<svg width="106" height="24" viewBox="0 0 106 24" fill="none" xmlns="http://www.w3.org/2000/svg">
<path d="M16.3155 15.0847V22.3051C16.3155 22.7006 16.2085 23.0847 15.9946 23.4576C15.7806 23.8192 15.3246 24 14.6265 24C13.8834 24 13.3823 23.8249 13.1233 23.4746C12.8644 23.1243 12.7349 22.7345 12.7349 22.3051V21.2881C12.1944 22.0904 11.5019 22.7458 10.6574 23.2542C9.8242 23.7514 8.79392 24 7.5666 24C7.36393 24 7.03176 23.9831 6.57011 23.9492C6.11972 23.9153 5.61302 23.8249 5.05003 23.678C4.48704 23.5311 3.90716 23.3107 3.31039 23.0169C2.73614 22.7345 2.19567 22.322 1.68897 21.7797C1.2048 21.2486 0.799448 20.5932 0.472913 19.8136C0.157638 19.0339 0 18.0791 0 16.9492V7.45763C0 6.53107 0.112598 5.71186 0.337795 5C0.562991 4.27684 0.861377 3.65537 1.23295 3.13559C1.59327 2.60452 2.00988 2.16384 2.48279 1.81356C2.9557 1.46328 3.43988 1.16949 3.93531 0.932203C5.07255 0.40113 6.38432 0.0903955 7.87062 0C9.13172 0 10.2014 0.141243 11.0797 0.423729C11.9692 0.706215 12.7236 1.07345 13.3429 1.52542C13.9622 1.9774 14.4576 2.48588 14.8292 3.05085C15.2008 3.63842 15.4879 4.22034 15.6906 4.79661C15.8932 5.38418 16.0227 5.94915 16.079 6.49153C16.1466 7.0339 16.1804 7.50282 16.1804 7.8983C16.1804 8.47458 16.0171 8.97175 15.6906 9.38983C15.3753 9.79661 14.6378 10 13.478 10C13.0952 10 12.6673 9.96045 12.1944 9.88136C11.7215 9.80226 11.3161 9.64407 10.9783 9.40678C10.6405 9.16949 10.4716 8.81356 10.4716 8.33898C10.4716 7.12994 10.3027 6.18079 9.96495 5.49153C9.63841 4.79096 8.9403 4.44068 7.87062 4.44068C7.31889 4.44068 6.89101 4.55367 6.587 4.77966C6.29424 5.00565 6.08031 5.25424 5.94519 5.52542C5.77629 5.87571 5.68621 6.23729 5.67495 6.61017V17.4576C5.67495 18.1808 5.92267 18.7966 6.4181 19.3051C6.92479 19.8136 7.55534 20.0678 8.30975 20.0678C9.21054 20.0678 9.94806 19.7062 10.5223 18.9831C11.1078 18.2486 11.5751 17.4237 11.9242 16.5085H10.3027C9.98747 16.4746 9.70034 16.3898 9.44136 16.2542C9.21617 16.1412 9.01349 15.9718 8.83333 15.7458C8.66444 15.5198 8.57999 15.209 8.57999 14.8136C8.57999 14.3842 8.66444 14.0565 8.83333 13.8305C9.01349 13.5932 9.21617 13.4181 9.44136 13.3051C9.72286 13.1695 10.01 13.096 10.3027 13.0847H14.6941C15.0206 13.0847 15.3697 13.2203 15.7412 13.4915C16.1241 13.7514 16.3155 14.2825 16.3155 15.0847Z" fill="#181E1D"/>
<path d="M20.1326 19.9322V4C20.1326 3.27684 20.172 2.62712 20.2508 2.05085C20.3409 1.46328 20.5661 1 20.9264 0.661017C21.2867 0.310734 21.8666 0.135593 22.666 0.135593H28.2396C29.6359 0.20339 30.8744 0.497175 31.9554 1.01695C32.417 1.24294 32.8674 1.51977 33.3066 1.84746C33.757 2.17514 34.1567 2.58757 34.5057 3.08475C34.8548 3.57062 35.1363 4.15254 35.3502 4.83051C35.5642 5.49718 35.6711 6.27119 35.6711 7.15254C35.6711 7.52542 35.6148 7.9548 35.5022 8.44068C35.3896 8.92655 35.2038 9.43503 34.9449 9.9661C34.776 10.3277 34.5226 10.6949 34.1848 11.0678C33.8696 11.4181 33.4811 11.7401 33.0194 12.0339C32.569 12.3277 32.0342 12.565 31.4149 12.7458C32.3382 13.1073 33.1377 13.678 33.8133 14.4576C34.4888 15.2373 34.8266 16.3164 34.8266 17.6949V20.1017C34.8266 20.2373 34.8604 20.3503 34.928 20.4407C34.9955 20.5311 35.0631 20.6102 35.1307 20.678C35.3896 20.9379 35.5473 21.1695 35.6036 21.3729C35.6486 21.5537 35.6711 21.7175 35.6711 21.8644C35.6711 22.6215 35.3953 23.1695 34.8435 23.5085C34.2918 23.8362 33.6669 24 32.9688 24C32.1806 24 31.4431 23.7627 30.7562 23.2881C30.0694 22.8023 29.7259 22.1356 29.7259 21.2881V17.6949C29.7259 16.6554 29.557 15.8249 29.2192 15.2034C28.8815 14.5819 28.1833 14.2712 27.1249 14.2712H25.2333V19.9322C25.2333 20.678 25.1882 21.3503 25.0982 21.9492C25.0081 22.5367 24.7829 23.0056 24.4226 23.3559C24.0735 23.6949 23.488 23.8644 22.666 23.8644C21.8666 23.8644 21.2867 23.6949 20.9264 23.3559C20.5661 23.0056 20.3409 22.5367 20.2508 21.9492C20.172 21.3503 20.1326 20.678 20.1326 19.9322ZM25.2333 4.13559V10.4746H27.5303C28.0933 10.452 28.6 10.3164 29.0504 10.0678C29.5007 9.83051 29.8667 9.47458 30.1482 9C30.4297 8.52542 30.5704 7.9096 30.5704 7.15254C30.5704 6.47458 30.4297 5.91525 30.1482 5.47458C29.8779 5.0339 29.5345 4.71186 29.1179 4.50847C28.7126 4.29379 28.2284 4.16949 27.6654 4.13559H25.2333Z" fill="#181E1D"/>
<path d="M38.0695 16.9831V6.84746C38.0695 5.74011 38.2271 4.81356 38.5424 4.0678C38.8577 3.29944 39.263 2.66102 39.7584 2.15254C40.2539 1.64407 40.7943 1.24859 41.3799 0.966102C41.6726 0.819209 41.9597 0.694915 42.2412 0.59322C42.534 0.491525 42.8211 0.40113 43.1026 0.322034C43.6656 0.175141 44.1667 0.0847458 44.6058 0.0508475C45.0562 0.0169492 45.3884 0 45.6023 0H46.1765C46.3905 0 46.7226 0.0169492 47.173 0.0508475C47.6234 0.0847458 48.1245 0.175141 48.6762 0.322034C49.2392 0.457627 49.8135 0.672316 50.399 0.966102C50.962 1.23729 51.4968 1.63842 52.0035 2.16949C52.4764 2.67797 52.8649 3.31638 53.1689 4.08475C53.4842 4.84181 53.6418 5.76271 53.6418 6.84746V16.9831C53.6418 18.1017 53.4898 19.0508 53.1858 19.8305C52.8705 20.6102 52.4764 21.2599 52.0035 21.7797C51.5306 22.2994 50.9958 22.7062 50.399 23C49.836 23.2938 49.2617 23.5198 48.6762 23.678C48.1245 23.8249 47.6234 23.9153 47.173 23.9492C46.7226 23.9831 46.3905 24 46.1765 24H45.6023C45.3996 24 45.0675 23.9831 44.6058 23.9492C44.1554 23.9153 43.6543 23.8249 43.1026 23.678C42.5509 23.5311 41.9766 23.3051 41.3799 23C40.7943 22.7062 40.2539 22.2994 39.7584 21.7797C39.2743 21.2599 38.8689 20.6102 38.5424 19.8305C38.2271 19.0508 38.0695 18.1017 38.0695 16.9831ZM43.6769 6.57627V17.6271C43.6881 18.0226 43.7838 18.3898 43.964 18.7288C44.1104 19.0113 44.3299 19.2655 44.6227 19.4915C44.9267 19.7175 45.3546 19.8305 45.9063 19.8305C46.4468 19.8305 46.8634 19.7175 47.1562 19.4915C47.4489 19.2655 47.6685 19.0113 47.8148 18.7288C47.9725 18.3898 48.0682 18.0226 48.102 17.6271V6.57627C48.0682 6.18079 47.9725 5.81356 47.8148 5.47458C47.6685 5.20339 47.4489 4.9548 47.1562 4.72881C46.8634 4.49153 46.4468 4.37288 45.9063 4.37288C45.3546 4.37288 44.9267 4.49153 44.6227 4.72881C44.3299 4.9548 44.1104 5.20339 43.964 5.47458C43.7838 5.80226 43.6881 6.16949 43.6769 6.57627Z" fill="#398166"/>
<path d="M57.1211 16.9831V6.84746C57.1211 5.74011 57.2787 4.81356 57.594 4.0678C57.9093 3.29944 58.3146 2.66102 58.8101 2.15254C59.3055 1.64407 59.846 1.24859 60.4315 0.966102C60.7242 0.819209 61.0114 0.694915 61.2929 0.59322C61.5856 0.491525 61.8727 0.40113 62.1542 0.322034C62.7172 0.175141 63.2183 0.0847458 63.6574 0.0508475C64.1078 0.0169492 64.44 0 64.6539 0H65.2282C65.4421 0 65.7743 0.0169492 66.2247 0.0508475C66.6751 0.0847458 67.1761 0.175141 67.7279 0.322034C68.2908 0.457627 68.8651 0.672316 69.4506 0.966102C70.0136 1.23729 70.5484 1.63842 71.0551 2.16949C71.528 2.67797 71.9165 3.31638 72.2205 4.08475C72.5358 4.84181 72.6934 5.76271 72.6934 6.84746V16.9831C72.6934 18.1017 72.5414 19.0508 72.2374 19.8305C71.9221 20.6102 71.528 21.2599 71.0551 21.7797C70.5822 22.2994 70.0474 22.7062 69.4506 23C68.8876 23.2938 68.3134 23.5198 67.7279 23.678C67.1761 23.8249 66.6751 23.9153 66.2247 23.9492C65.7743 23.9831 65.4421 24 65.2282 24H64.6539C64.4512 24 64.1191 23.9831 63.6574 23.9492C63.207 23.9153 62.706 23.8249 62.1542 23.678C61.6025 23.5311 61.0283 23.3051 60.4315 23C59.846 22.7062 59.3055 22.2994 58.8101 21.7797C58.3259 21.2599 57.9205 20.6102 57.594 19.8305C57.2787 19.0508 57.1211 18.1017 57.1211 16.9831ZM62.7285 6.57627V17.6271C62.7397 18.0226 62.8355 18.3898 63.0156 18.7288C63.162 19.0113 63.3816 19.2655 63.6743 19.4915C63.9783 19.7175 64.4062 19.8305 64.9579 19.8305C65.4984 19.8305 65.915 19.7175 66.2078 19.4915C66.5005 19.2655 66.7201 19.0113 66.8665 18.7288C67.0241 18.3898 67.1198 18.0226 67.1536 17.6271V6.57627C67.1198 6.18079 67.0241 5.81356 66.8665 5.47458C66.7201 5.20339 66.5005 4.9548 66.2078 4.72881C65.915 4.49153 65.4984 4.37288 64.9579 4.37288C64.4062 4.37288 63.9783 4.49153 63.6743 4.72881C63.3816 4.9548 63.162 5.20339 63.0156 5.47458C62.8355 5.80226 62.7397 6.16949 62.7285 6.57627Z" fill="#398166"/>
<path d="M87.9618 0.135593C88.6261 0.135593 89.206 0.344633 89.7014 0.762712C90.2081 1.18079 90.4614 1.69492 90.4614 2.30508C90.4614 2.58757 90.4333 2.84181 90.377 3.0678C90.332 3.22599 90.3038 3.33333 90.2925 3.38983C89.9097 4.89266 89.5156 6.41243 89.1103 7.94915C88.7162 9.48588 88.3108 11.0395 87.8942 12.6102C87.4776 14.1808 87.0666 15.7345 86.6612 17.2712C86.2672 18.8079 85.8787 20.3277 85.4959 21.8305C85.327 22.226 85.1018 22.565 84.8203 22.8475C84.5838 23.1073 84.2742 23.3446 83.8913 23.5593C83.5198 23.7627 83.0525 23.8644 82.4895 23.8644H81.949C81.386 23.8644 80.9131 23.7627 80.5303 23.5593C80.1474 23.3446 79.8378 23.1073 79.6013 22.8475C79.3198 22.5537 79.1003 22.2147 78.9426 21.8305L74.146 3.38983C74.1009 3.28814 74.0728 3.18079 74.0615 3.0678C74.0052 2.81921 73.9771 2.56497 73.9771 2.30508C73.9771 1.68362 74.2191 1.16949 74.7033 0.762712C75.1987 0.344633 75.7899 0.135593 76.4767 0.135593C77.0172 0.135593 77.4507 0.254237 77.7772 0.491525C78.115 0.728814 78.3796 0.99435 78.5711 1.28814C78.785 1.60452 78.9426 1.9887 79.044 2.44068C79.1791 2.98305 79.3255 3.59887 79.4831 4.28814C79.6407 4.9661 79.7984 5.67232 79.956 6.40678C80.1137 7.14124 80.2713 7.89266 80.4289 8.66102C80.5978 9.41808 80.7555 10.1525 80.9018 10.8644C81.082 11.7006 81.2565 12.548 81.4254 13.4068C81.5943 14.2655 81.7689 15.1299 81.949 16H82.4895C82.8836 14.2486 83.2551 12.5367 83.6042 10.8644C83.7506 10.1525 83.9026 9.41808 84.0602 8.66102C84.2291 7.89266 84.3924 7.14124 84.55 6.40678C84.7077 5.67232 84.8597 4.9661 85.0061 4.28814C85.1524 3.59887 85.2819 2.98305 85.3945 2.44068C85.5296 1.9774 85.6929 1.59322 85.8843 1.28814C86.0757 0.99435 86.3347 0.728814 86.6612 0.491525C86.9878 0.254237 87.4213 0.135593 87.9618 0.135593Z" fill="#181E1D"/>
<path d="M95.4946 0.135593H102.115C102.791 0.135593 103.422 0.186441 104.007 0.288136C104.604 0.378531 105.082 0.59322 105.443 0.932203C105.814 1.27119 106 1.80791 106 2.54237C106 3.27684 105.814 3.81356 105.443 4.15254C105.082 4.49153 104.604 4.71186 104.007 4.81356C103.422 4.90395 102.791 4.94915 102.115 4.94915H98.0956V9.55932H100.224C100.888 9.55932 101.507 9.60452 102.082 9.69491C102.656 9.77401 103.117 9.9774 103.467 10.3051C103.827 10.6215 104.007 11.1412 104.007 11.8644C104.007 12.5876 103.827 13.113 103.467 13.4407C103.117 13.7571 102.656 13.9605 102.082 14.0508C101.507 14.1299 100.888 14.1695 100.224 14.1695H98.0956V19.0508H102.115C102.791 19.0508 103.422 19.096 104.007 19.1864C104.604 19.2768 105.082 19.4915 105.443 19.8305C105.814 20.1582 106 20.6893 106 21.4237C106 22.1695 105.814 22.7175 105.443 23.0678C105.071 23.4068 104.587 23.6271 103.99 23.7288C103.405 23.8192 102.78 23.8644 102.115 23.8644H95.4946C94.6951 23.8644 94.1153 23.6893 93.7549 23.339C93.4059 22.9887 93.1863 22.5198 93.0962 21.9322C93.0062 21.3446 92.9611 20.6893 92.9611 19.9661V4.0339C92.9611 3.31073 93.0062 2.65537 93.0962 2.0678C93.1863 1.48023 93.4059 1.0113 93.7549 0.661017C94.1153 0.310734 94.6951 0.135593 95.4946 0.135593Z" fill="#181E1D"/>
</svg>
