<svg width="20" height="20" viewBox="0 0 20 20" fill="none" xmlns="http://www.w3.org/2000/svg">
<path d="M13.3334 1.66666H6.66675C3.33341 1.66666 1.66675 3.33332 1.66675 6.66666V17.5C1.66675 17.9583 2.04175 18.3333 2.50008 18.3333H13.3334C16.6667 18.3333 18.3334 16.6667 18.3334 13.3333V6.66666C18.3334 3.33332 16.6667 1.66666 13.3334 1.66666ZM11.6667 12.7083H5.83342C5.49175 12.7083 5.20841 12.425 5.20841 12.0833C5.20841 11.7417 5.49175 11.4583 5.83342 11.4583H11.6667C12.0084 11.4583 12.2917 11.7417 12.2917 12.0833C12.2917 12.425 12.0084 12.7083 11.6667 12.7083ZM14.1667 8.54166H5.83342C5.49175 8.54166 5.20841 8.25832 5.20841 7.91666C5.20841 7.57499 5.49175 7.29166 5.83342 7.29166H14.1667C14.5084 7.29166 14.7917 7.57499 14.7917 7.91666C14.7917 8.25832 14.5084 8.54166 14.1667 8.54166Z" fill="#BABABA"/>
</svg>
