<svg width="16" height="17" viewBox="0 0 16 17" fill="none" xmlns="http://www.w3.org/2000/svg">
<path d="M14.1666 6.60001C12.6266 4.18001 10.3733 2.78668 7.99992 2.78668C6.81325 2.78668 5.65992 3.13335 4.60659 3.78002C3.55325 4.43335 2.60659 5.38668 1.83325 6.60001C1.16659 7.64668 1.16659 9.34668 1.83325 10.3933C3.37325 12.82 5.62659 14.2067 7.99992 14.2067C9.18659 14.2067 10.3399 13.86 11.3933 13.2133C12.4466 12.56 13.3933 11.6067 14.1666 10.3933C14.8333 9.35335 14.8333 7.64668 14.1666 6.60001ZM7.99992 11.1933C6.50659 11.1933 5.30659 9.98668 5.30659 8.50001C5.30659 7.01335 6.50659 5.80668 7.99992 5.80668C9.49325 5.80668 10.6933 7.01335 10.6933 8.50001C10.6933 9.98668 9.49325 11.1933 7.99992 11.1933Z" fill="#EAEAEA"/>
<path d="M8.0001 6.59332C6.95343 6.59332 6.1001 7.44666 6.1001 8.49999C6.1001 9.54666 6.95343 10.4 8.0001 10.4C9.04676 10.4 9.90676 9.54666 9.90676 8.49999C9.90676 7.45332 9.04676 6.59332 8.0001 6.59332Z" fill="#EAEAEA"/>
</svg>
